<?xml version="1.0" encoding="utf-8"?>
<!-- Generator: Adobe Illustrator 22.1.0, SVG Export Plug-In . SVG Version: 6.00 Build 0)  -->
<svg version="1.1" id="レイヤー_1" xmlns="http://www.w3.org/2000/svg" xmlns:xlink="http://www.w3.org/1999/xlink" x="0px"
	 y="0px" viewBox="0 0 350 34.4" style="enable-background:new 0 0 350 34.4;" xml:space="preserve">
<style type="text/css">
	.st0{fill:#0072C2;}
</style>
<g>
	<path class="st0" d="M20.5,0H0v7.2h19.1v19.5H0V34h20.5c4.1,0,7.4-3.3,7.4-7.4V7.4C27.9,3.3,24.6,0,20.5,0"/>
	<path class="st0" d="M38.2,8.8h-7.3c0.8,2.4,3.1,11.9-3.6,25.2h11.4C39.1,32.8,42.8,19.4,38.2,8.8"/>
	<path class="st0" d="M45.1,20.2C46,22.4,47.8,27.7,48,34h8.6c-0.4-6.4-2.1-11.4-3.1-13.8H45.1"/>
	<path class="st0" d="M46.8,12.7c0,1.5-1.2,2.8-2.8,2.8c-1.5,0-2.8-1.2-2.8-2.8c0-1.5,1.2-2.8,2.8-2.8C45.5,9.9,46.8,11.1,46.8,12.7
		"/>
	<path class="st0" d="M53.3,12.7c0,1.5-1.2,2.8-2.8,2.8c-1.5,0-2.8-1.2-2.8-2.8c0-1.5,1.2-2.8,2.8-2.8C52.1,9.9,53.3,11.1,53.3,12.7
		"/>
	<path class="st0" d="M79.4,12.4L79.4,12.4l-11.6,1.2C66.2,10.7,65,9.4,65,9.4h-7.4c0,0,1,1.9,2.1,5l-4.1,0.4l0.8,5.6l5.1-0.3
		c1.1,4.3,1.9,9.4,1.1,14.2h12.1c-1.1-6.1-2.6-11-4.2-14.8l7-0.5c-0.9,1.5-2.2,3-4.6,4.3l2.3,7.4c5.4-2,11.1-8,11.2-19.1L79.4,12.4"
		/>
	<path class="st0" d="M114.8,18.5c-4.7,17.9-13.5,15.9-28,15.9v-8.6c18,0,18.2,1.4,23.8-10.6L114.8,18.5"/>
	<path class="st0" d="M180.8,18.5c-4.7,17.9-13.5,15.9-28,15.9v-8.6c18,0,18.2,1.4,23.8-10.6L180.8,18.5"/>
	<path class="st0" d="M93.1,10l-5.4,0c1.2,1.7,2.4,4.6,2.7,7.7h5.4C95.5,14.6,94.3,11.7,93.1,10"/>
	<path class="st0" d="M100.4,10L95,10c1.2,1.7,2.4,4.6,2.7,7.7h5.4C102.8,14.6,101.6,11.7,100.4,10"/>
	<path class="st0" d="M163.2,10l-6.8,0c1.2,1.6,2.6,4.4,3,7.4h7.6C166.6,14.4,164.7,11.7,163.2,10"/>
	<path class="st0" d="M140.3,21.9v-9.2c0-2.5,1.7-4.7,4-5.3h5.8V0.1h-27.8v7.2h13.8c-2.3,0.7-3.9,2.7-3.9,5.2v9.3
		c0,2.4-1.6,4.5-3.8,5.2h-6v7.2h27.8V27h-13.5C138.8,26.3,140.3,24.3,140.3,21.9"/>
	<path class="st0" d="M122.3,19.8c0,1.2-1,2.2-2.2,2.2c-1.2,0-2.2-1-2.2-2.2c0-1.2,1-2.2,2.2-2.2C121.3,17.6,122.3,18.6,122.3,19.8"
		/>
	<rect x="262.6" y="9.9" class="st0" width="28.3" height="3.9"/>
	<path class="st0" d="M281.1,15.5h-18.5v4.3h18.5v0.1c0,4.5-2,8.2-6.6,8.2h-11.8v5.8H277c7.7,0,13.9-6.2,13.9-13.9v-4.5H281.1"/>
	<path class="st0" d="M230.3,17.2h-19v2.7c0,2-0.2,3.9-0.9,5.6h19.9V17.2"/>
	<path class="st0" d="M312.1,9.8v1.6c0,3.2-2.6,5.7-5.7,5.7h-14.2v5.6h10v11.1h7.7V22.8h1.7c4.5,0,8.2-3.7,8.2-8.2V9.8H312.1"/>
	<rect x="345.4" y="10.1" class="st0" width="4.2" height="5.4"/>
	<path class="st0" d="M343.3,25.1c0.7-1.6,1-3.4,1-5.2v-3.5h-4.8V9.9h-18.3v5.7h14.9v4.2c0,4.5-3.7,8.2-8.2,8.2h-6.5v5.8h8.9
		c4,0,7.6-1.7,10.1-4.3c1,0.7,1.7,2,1.7,3.3v1h7.8v-0.7C350,29.2,347.1,25.8,343.3,25.1"/>
	<rect x="340.3" y="10.1" class="st0" width="4.2" height="5.4"/>
	<path class="st0" d="M257.2,18.6c-3.1,0-5.5-2.5-5.5-5.5c0-1.2,0.4-2.3,1-3.2h-21.2v5.7h20.2v4.2c0,4.5-3.7,8.2-8.2,8.2h-11.8v5.8
		h14.2c7.7,0,13.9-6.2,13.9-13.9V18C259,18.4,258.2,18.6,257.2,18.6"/>
	<path class="st0" d="M257.2,8.3c-2.6,0-4.7,2.1-4.7,4.7s2.1,4.7,4.7,4.7c2.6,0,4.7-2.1,4.7-4.7S259.8,8.3,257.2,8.3 M257.2,15.7
		c-1.5,0-2.6-1.2-2.6-2.6c0-1.5,1.2-2.6,2.6-2.6c1.5,0,2.6,1.2,2.6,2.6C259.9,14.5,258.7,15.7,257.2,15.7z"/>
	<path class="st0" d="M186.6,10.5c-0.1,1.7-1.6,3-3.3,3h-0.8v5.3h3.5c1.8,0,3.3-0.9,4.2-2.3c0-0.1,0.1-0.2,0.1-0.2h11.4v2.3
		c0,1.6-0.4,3-1,4.4c-3.1-3.6-6.9-5.5-6.9-5.5l-4,4.4c0,0,3.8,3.3,4.1,6.4c-0.7,0.1-1.3,0.2-2,0.2h-10.2v6.1h14.2
		c7.7,0,13.9-6.2,13.9-13.9v-10H186.6"/>
</g>
</svg>
