<?xml version="1.0" encoding="utf-8"?>
<!-- Generator: Adobe Illustrator 22.1.0, SVG Export Plug-In . SVG Version: 6.00 Build 0)  -->
<svg version="1.1" id="レイヤー_1" xmlns="http://www.w3.org/2000/svg" xmlns:xlink="http://www.w3.org/1999/xlink" x="0px"
	 y="0px" viewBox="0 0 687.9 327" style="enable-background:new 0 0 687.9 327;" xml:space="preserve">
<style type="text/css">
	.st0{fill:#FA9C1C;}
	.st1{fill:#FFFFFF;}
</style>
<g>
	<g>
		<path class="st0" d="M75,327l20.7-84.6L23,327H0l62.3-129.6h23.1L35.3,301.3l59.5-68h11.2l-17.3,72.5l69.4-108.4h23.1L97.8,327H75
			z"/>
		<path class="st0" d="M120,327l73.1-129.4h24.5L144.6,327H120z"/>
		<path class="st0" d="M181.6,327l68.2-120.9h-38.8l6.4-8.5h99.1l-6.3,8.5h-37.3L206.1,327H181.6z"/>
		<path class="st0" d="M310.8,327l34.5-62h-51.1L260,327h-24.5l73.1-129.6h23l-32.6,59.1h51.1l33.1-59.1h23L335.4,327H310.8z"/>
		<path class="st0" d="M373.4,327l73.1-129.4h23l-66.7,120.8h50.8L521,197.6h23L473.3,327H373.4z"/>
		<path class="st0" d="M483.9,327l21.2-39.3h24.2l-16.4,30.7h47.5l29.8-55.3h-71.6l36.8-65.6h91.7l-19.2,35.8H604l15-27.2h-44.8
			l-26.9,48.3h70.8L579.8,327H483.9z"/>
		<path class="st0" d="M588.9,326.8l15.2-27.3h25.6l-15.1,27.3H588.9z M614.4,287l45.8-89.6h27.7L632.3,287H614.4z"/>
	</g>
	<g>
		<path class="st1" d="M2,87L47,7.3h60.5L94.6,30.5H79.8l10.4-18H58.3L20.1,81.7h31.7l12.8-22.1H79L63.5,87H2z"/>
		<path class="st1" d="M100.2,87l27.6-49.5h-16.4L83.6,87H69.8L119,0h13.8l-18.3,32.4h30.1L114.1,87H100.2z"/>
		<path class="st1" d="M150.6,87l17.6-31.6h-16.4l-15,26.4h13.5l-3.8,5.1h-26.3l20.8-36.7H171l7.1-12.8h-31l3.7-5.1h43.9L164.4,87
			H150.6z"/>
		<path class="st1" d="M201.3,87l27.6-49.5h-16.3l-28,49.5h-13.8l31-54.6h43.8L215.1,87H201.3z"/>
		<path class="st1" d="M208.8,111.8l12-21.4h13.8l-9.2,16.3H241l13.5-24.8h-30l27.9-49.5h42.9L252,111.8H208.8z M278.8,37.5h-15.3
			l-22.2,39.3h16.1L278.8,37.5z"/>
		<path class="st1" d="M271.7,87l31-54.6h43.7l-15.2,27.2h-26.7l3.5-5.1h12.2l9.5-16.9h-16.2l-25.2,44.4h16.7l7.5-13.3h13.8
			L316.1,87H271.7z"/>
	</g>
	<g>
		<path class="st1" d="M5,184.9l42-74.4H23.1l4-5.2h61l-3.9,5.2H61.2l-41.1,74.4H5z"/>
		<path class="st1" d="M74,184.9l27.6-49.5H85.3l-27.9,49.5H43.5l49.2-87h13.8l-18.3,32.4h30.1l-30.5,54.6H74z"/>
		<path class="st1" d="M94.3,184.9l31-54.6h43.7l-15.2,27.2h-26.7l3.5-5.1h12.2l9.5-16.9h-16.2L111,179.8h16.7l7.5-13.3h13.8
			l-10.5,18.5H94.3z"/>
		<path class="st1" d="M170.6,184.9l49.3-87h13.9l-49.3,87H170.6z"/>
		<path class="st1" d="M191.4,184.9l30.9-54.6h43.8l-30.4,54.6H191.4z M249.4,135.4h-16.3l-25.1,44.4h16.6L249.4,135.4z"/>
		<path class="st1" d="M229.3,209.7l12-21.4h13.8l-9.2,16.3h15.6l13.5-24.8h-30l27.9-49.5h42.9l-43.3,79.5H229.3z M299.3,135.4H284
			l-22.2,39.3h16.1L299.3,135.4z"/>
		<path class="st1" d="M292.5,184.9l31-54.6h13.9l-31,54.6H292.5z M328.4,120.7l8.8-15.4H352l-8.8,15.4H328.4z"/>
		<path class="st1" d="M313,184.9l8.8-15.9h13.8l-5.9,10.7h13.7l12-21.4h-27.4l15.8-28h40.7l-7.7,13.7H363l4.9-8.6h-13.1l-10,17.7
			h27.4l-17.9,31.8H313z"/>
		<path class="st1" d="M364.8,184.9l28-49.5h-10.6l3.5-5.1h9.9l11.4-20.1h13.8l-11.4,20.1h13.4l-3.9,5.1h-12.3l-25.2,44.4h14.1
			l-3.9,5.1H364.8z"/>
		<path class="st1" d="M393.2,184.9l31-54.6h13.9l-31,54.6H393.2z M429.1,120.7l8.8-15.4h14.7l-8.8,15.4H429.1z"/>
		<path class="st1" d="M414.1,184.9l30.9-54.6h43.8L478.8,148h-13.8l7.1-12.6h-16.2l-25.1,44.4h16.7l8.5-14.9h13.8l-11.5,20H414.1z"
			/>
		<path class="st1" d="M464,184.9l8.8-15.9h13.8l-5.9,10.7h13.7l12-21.4h-27.4l15.8-28h40.7l-7.7,13.7H514l4.9-8.6h-13.1l-10,17.7
			h27.4l-17.9,31.8H464z"/>
		<path class="st1" d="M512.4,184.8l9.4-16.8h15.8l-9.3,16.8H512.4z M528.1,160.3l28.2-55.2h17l-34.2,55.2H528.1z"/>
	</g>
</g>
</svg>
